<svg xmlns="http://www.w3.org/2000/svg" width="16" height="16" viewBox="0 0 16 16">
  <g fill="none" fill-rule="evenodd">
    <path fill="#40B6E0" fill-opacity=".6" d="M15,8 C15,11.866 11.866,15 8,15 C4.134,15 1,11.866 1,8 C1,4.134 4.134,1 8,1 C11.866,1 15,4.134 15,8"/>
    <path fill="#231F20" fill-opacity=".7" d="M0,3.71353482 L0,0 L0.994771242,0 L0.994771242,4.00525624 C0.994771242,4.29960725 1.01568627,5 2,5 C2.98431373,5 2.98431373,4.29960725 2.98431373,4.00525624 L2.98431373,0 L4,0 L4,3.71353482 C4,4.51248757 3.84183165,5.09329648 3.5254902,5.45597898 C3.20914875,5.81866147 2.7006571,6 2,6 C1.30195729,6 0.794119235,5.81866147 0.476470588,5.45597898 C0.158821941,5.09329648 0,4.51248757 0,3.71353482 Z" transform="translate(6 5)"/>
  </g>
</svg>
