<svg width="16" height="16" viewBox="0 0 16 16" fill="none" xmlns="http://www.w3.org/2000/svg">
    <circle cx="8" cy="8" r="6.5" fill="#402929" stroke="#DB5C5C"/>
    <path fill="#DB5C5C" d="M11.852,10.16 L11.852,11.3 C11.636,11.36 11.384,11.42 11.012,11.42 C10.208,11.42 9.716,11.144 9.488,10.52 C9.104,11.108 8.552,11.432 7.916,11.432 C7.232,11.432 6.572,11.108 6.272,10.436 L6.248,10.436 C6.344,10.952 6.44,11.348 6.44,11.9 L6.44,13.256 L5,13.256 L5,5 L6.464,5 L6.464,8.6 C6.464,9.572 7.016,10.184 7.868,10.184 C8.72,10.184 9.296,9.572 9.296,8.6 L9.296,5 L10.748,5 L10.748,9.44 C10.748,9.98 10.988,10.208 11.444,10.208 C11.6,10.208 11.744,10.184 11.852,10.16 Z"/>
</svg>
